<svg width="32" height="32" viewBox="0 0 32 32" fill="none" xmlns="http://www.w3.org/2000/svg">
<path fill-rule="evenodd" clip-rule="evenodd" d="M10 4C6.68652 4 4 6.68628 4 10V22C4 25.3137 6.68652 28 10 28H22C25.3135 28 28 25.3137 28 22V10C28 6.68628 25.3135 4 22 4H10ZM10 16.1057C10 12.7339 12.687 10 16 10C19.3135 10 22 12.7339 22 16.1057C22 18.8025 20.2832 21.0908 17.9004 21.8992C17.8228 21.9146 17.7588 21.9419 17.7065 21.9641C17.5537 22.0295 17.5 22.0522 17.5 21.6062V19.9307C17.5 19.3608 17.3037 18.9893 17.0884 18.8C18.4243 18.6489 19.8281 18.1326 19.8281 15.7874C19.8281 15.1208 19.5957 14.5759 19.2104 14.1484C19.2725 13.9946 19.478 13.3735 19.1514 12.5325C19.1514 12.5325 18.6484 12.3687 17.5029 13.1582C17.0234 13.0229 16.5098 12.9553 16 12.9526C15.4902 12.9553 14.9771 13.0229 14.4985 13.1582C13.3521 12.3687 12.8481 12.5325 12.8481 12.5325C12.522 13.373 12.7275 13.9941 12.7896 14.1484C12.4058 14.5759 12.1714 15.1204 12.1714 15.7874C12.1714 18.1265 13.5723 18.6499 14.9048 18.8052C14.7329 18.9573 14.5776 19.2268 14.5239 19.6213C14.1816 19.7776 13.313 20.0471 12.7778 19.114C12.7778 19.114 12.4609 18.5273 11.8584 18.4846C11.8584 18.4846 11.2725 18.4763 11.8169 18.8555C11.8169 18.8555 12.2104 19.0432 12.4834 19.749C12.4834 19.749 12.8311 20.8389 14.5 20.4695V21.6062C14.5 22.1624 14.4028 21.9563 14.1035 21.8997C11.7192 21.0923 10 18.8035 10 16.1057Z" fill="white"/>
</svg>
