<svg width="32" height="32" viewBox="0 0 32 32" fill="none" xmlns="http://www.w3.org/2000/svg">
<path fill-rule="evenodd" clip-rule="evenodd" d="M4.59168 6.96405C4 8.12529 4 9.64543 4 12.6857V19.3143C4 22.3546 4 23.8747 4.59168 25.0359C5.11213 26.0574 5.9426 26.8879 6.96405 27.4083C8.12529 28 9.64543 28 12.6857 28H19.3143C22.3546 28 23.8747 28 25.0359 27.4083C26.0574 26.8879 26.8879 26.0574 27.4083 25.0359C28 23.8747 28 22.3546 28 19.3143V12.6857C28 9.64543 28 8.12529 27.4083 6.96405C26.8879 5.9426 26.0574 5.11213 25.0359 4.59168C23.8747 4 22.3546 4 19.3143 4H12.6857C9.64543 4 8.12529 4 6.96405 4.59168C5.9426 5.11213 5.11213 5.9426 4.59168 6.96405ZM12.9582 11.8404C12.9582 12.5728 12.3234 13.1665 11.5403 13.1665C10.7572 13.1665 10.1224 12.5728 10.1224 11.8404C10.1224 11.108 10.7572 10.5143 11.5403 10.5143C12.3234 10.5143 12.9582 11.108 12.9582 11.8404ZM10.3163 14.1412H12.7401V21.4857H10.3163V14.1412ZM14.2185 14.1412H16.6423V15.0835C17.0491 14.566 17.8302 13.9939 19.0902 13.9939C21.212 13.9939 21.857 15.1344 21.8775 17.6095V21.4857H19.4538C19.4538 21.0068 19.4505 20.5254 19.4471 20.044C19.4424 19.3613 19.4377 18.6783 19.4425 18.004C19.4487 17.1242 19.4568 15.9887 18.1207 15.9887C16.9385 15.9887 16.6423 16.8602 16.6423 17.7279V21.4857H14.2185V14.1412Z" fill="white"/>
</svg>
