<svg width="32" height="32" viewBox="0 0 32 32" fill="none" xmlns="http://www.w3.org/2000/svg">
<g clip-path="url(#clip0_71_2329)">
<path d="M0 0V-0.665H-0.665V0H0ZM32 0H32.665V-0.665H32V0ZM32 32V32.665H32.665V32H32ZM0 32H-0.665V32.665H0V32ZM5.13689 6.86311L4.66667 6.39288L3.72621 7.33333L4.19644 7.80356L5.13689 6.86311ZM6.66667 9.33333L6.19644 9.80356C6.45614 10.0633 6.87719 10.0633 7.13689 9.80356L6.66667 9.33333ZM10.4702 6.47023L10.9405 6L10 5.05955L9.52977 5.52977L10.4702 6.47023ZM5.13689 14.8631L4.66667 14.3929L3.72621 15.3333L4.19644 15.8036L5.13689 14.8631ZM6.66667 17.3333L6.19644 17.8036C6.32115 17.9283 6.4903 17.9983 6.66667 17.9983C6.84304 17.9983 7.01218 17.9283 7.13689 17.8036L6.66667 17.3333ZM10.4702 14.4702L10.9405 14L10 13.0595L9.52977 13.5298L10.4702 14.4702ZM5.13689 22.8631L4.66667 22.3929L3.72621 23.3333L4.19644 23.8036L5.13689 22.8631ZM6.66667 25.3333L6.19644 25.8036C6.32115 25.9283 6.4903 25.9983 6.66667 25.9983C6.84304 25.9983 7.01218 25.9283 7.13689 25.8036L6.66667 25.3333ZM10.4702 22.4702L10.9405 22L10 21.0595L9.52977 21.5298L10.4702 22.4702ZM14.6667 7.335H14.0017V8.665H14.6667V7.335ZM26.6667 8.665H27.3317V7.335H26.6667V8.665ZM14.6667 15.335H14.0017V16.665H14.6667V15.335ZM26.6667 16.665H27.3317V15.335H26.6667V16.665ZM14.6667 23.335H14.0017V24.665H14.6667V23.335ZM26.6667 24.665H27.3317V23.335H26.6667V24.665ZM0 0.665H32V-0.665H0V0.665ZM31.335 0V32H32.665V0H31.335ZM32 31.335H0V32.665H32V31.335ZM0.665 32V0H-0.665V32H0.665ZM4.19644 7.80356L6.19644 9.80356L7.13689 8.86311L5.13689 6.86311L4.19644 7.80356ZM7.13689 9.80356L10.4702 6.47023L9.52977 5.52977L6.19644 8.86311L7.13689 9.80356ZM4.19644 15.8036L6.19644 17.8036L7.13689 16.8631L5.13689 14.8631L4.19644 15.8036ZM7.13689 17.8036L10.4702 14.4702L9.52977 13.5298L6.19644 16.8631L7.13689 17.8036ZM4.19644 23.8036L6.19644 25.8036L7.13689 24.8631L5.13689 22.8631L4.19644 23.8036ZM7.13689 25.8036L10.4702 22.4702L9.52977 21.5298L6.19644 24.8631L7.13689 25.8036ZM14.6667 8.665H26.6667V7.335H14.6667V8.665ZM14.6667 16.665H26.6667V15.335H14.6667V16.665ZM14.6667 24.665H26.6667V23.335H14.6667V24.665Z" fill="white"/>
</g>
<defs>
<clipPath id="clip0_71_2329">
<rect width="32" height="32" fill="white"/>
</clipPath>
</defs>
</svg>
