<svg width="103" height="64" viewBox="0 0 103 64" fill="none" xmlns="http://www.w3.org/2000/svg">
<g clip-path="url(#clip0_105_98)">
<path d="M69.4707 10.3343C68.1801 9.31297 66.2904 8.76631 63.6375 8.76631C62.4297 8.74826 61.2234 8.8585 60.0388 9.0952C59.1818 9.32765 58.375 9.71668 57.6589 10.2428C57.0586 10.6984 56.5937 11.3097 56.3142 12.0108C56.0371 12.6802 55.901 13.3998 55.9145 14.1245V14.8712C55.8418 15.0721 55.9872 15.2179 56.1866 15.2179H59.4396C59.5093 15.21 59.5743 15.1787 59.6239 15.1289C59.6735 15.0792 59.7048 15.014 59.7126 14.9441C59.7667 14.2152 60.0583 13.5228 60.5298 12.9761C61.075 12.3565 62.0925 12.0285 63.5825 12.0285C64.2234 12.0091 64.8628 12.1015 65.4723 12.3014C65.8906 12.4659 66.2904 12.6845 66.6175 12.977C67.1076 13.4685 67.3984 14.1236 67.4347 14.817V15.7645C67.4347 16.0925 67.362 16.4205 67.2353 16.7121C67.127 16.9676 66.966 17.1973 66.7628 17.3859C66.6168 17.5808 66.4309 17.7424 66.2177 17.8596C66.0709 17.9682 65.9124 18.0601 65.7453 18.1334C65.6726 18.2063 65.3996 18.2605 64.8731 18.4801C64.3457 18.6979 63.8555 18.8801 63.1828 19.0988C62.5109 19.2996 61.8204 19.4996 61.1476 19.7734C60.4758 20.0463 59.858 20.1734 59.3128 20.393C58.2534 20.738 57.3594 21.4653 56.8044 22.4339C56.2399 23.355 55.9385 24.414 55.9331 25.4952V27.609C55.9741 28.2104 56.09 28.8043 56.2779 29.377C56.4873 30.0618 56.8841 30.674 57.4231 31.1441C58.0736 31.7763 58.8643 32.2448 59.7303 32.5112C60.9845 32.8934 62.2919 33.0756 63.6011 33.0579C64.9078 33.1145 66.2136 32.9292 67.4533 32.5112C68.3309 32.2342 69.1373 31.7676 69.8155 31.1441C70.36 30.679 70.7576 30.0649 70.9598 29.377C71.1739 28.8115 71.2908 28.2137 71.3055 27.609V14.2881C71.3059 13.5346 71.1418 12.7901 70.8249 12.107C70.5079 11.4238 70.0457 10.8185 69.4707 10.3334V10.3343ZM66.6166 28.7574C66.0723 29.3041 64.9998 29.6321 63.5648 29.6321C62.1289 29.6321 61.1299 29.3583 60.5848 28.8116C59.9856 28.0894 59.692 27.1607 59.7667 26.2241C59.7667 25.7503 59.8393 25.2036 60.1124 24.8028C60.3304 24.4561 60.5662 24.1468 60.8569 23.8552C61.1299 23.6543 61.5297 23.4543 61.8745 23.2356C62.2742 23.0348 62.892 22.889 63.3645 22.689C63.8465 22.469 64.3446 22.2862 64.8545 22.1423C65.3996 22.0143 65.872 21.7956 66.3445 21.6685C66.5811 21.5956 66.8169 21.4863 67.0172 21.3396C67.2716 21.1948 67.4347 20.9396 67.4897 20.6659L67.417 26.2428C67.4864 27.1533 67.1987 28.0552 66.6166 28.7574ZM52.1172 8.7672H54.28C54.4245 8.78497 54.5335 8.89431 54.5521 9.04008V9.0952L53.8076 11.9556C53.8076 12.0836 53.6799 12.1565 53.5346 12.1565H52.0446C51.3735 12.1335 50.705 12.2516 50.0821 12.5032C49.649 12.6621 49.2575 12.9174 48.9369 13.2499C48.7011 13.505 48.5008 13.7965 48.3918 14.1245C48.3141 14.4098 48.2716 14.7035 48.265 14.9992V32.657C48.2828 32.8392 48.1374 32.985 47.9743 33.0036H44.6672C44.6266 32.999 44.5872 32.9864 44.5514 32.9664C44.5156 32.9464 44.4841 32.9196 44.4587 32.8873C44.4334 32.8551 44.4146 32.8182 44.4035 32.7786C44.3925 32.7391 44.3893 32.6977 44.3942 32.657V14.2881C44.3942 13.8143 44.4669 13.3228 44.5937 12.8668C44.7213 12.1743 45.0661 11.537 45.5386 11.0268C46.194 10.3528 46.9793 9.8196 47.8467 9.45964C49.206 8.93081 50.661 8.69547 52.1172 8.7672ZM41.0686 26.7165V27.5361C41.0686 28.0463 40.9959 28.5388 40.8691 29.0303C40.7223 29.717 40.3962 30.3523 39.9242 30.8712C39.2737 31.551 38.4871 32.085 37.6161 32.4383C36.2529 32.9308 34.7992 33.1672 33.3456 33.113C31.8919 33.1485 30.4382 32.9308 29.0759 32.4383C28.1955 32.103 27.4052 31.5664 26.7678 30.8712C26.2924 30.355 25.9659 29.719 25.8229 29.0312C25.6961 28.5565 25.6961 28.0828 25.6226 27.609V9.04008C25.6048 8.85786 25.7502 8.71208 25.9133 8.69342H29.1299C29.3117 8.67564 29.4579 8.82142 29.4756 9.00453V26.297C29.4934 26.7343 29.5297 27.1539 29.6024 27.5912C29.7114 27.9379 29.9117 28.265 30.1475 28.5388C30.4569 28.8854 30.8566 29.1396 31.2927 29.2854C31.9469 29.505 32.6373 29.6143 33.3278 29.6321C34.0369 29.6499 34.7638 29.5414 35.4356 29.2854C35.8717 29.1583 36.2715 28.921 36.5799 28.6116C36.8434 28.3802 37.0331 28.0759 37.1251 27.737C37.2652 27.2952 37.3329 26.8334 37.3254 26.3699V9.04008C37.3182 8.95841 37.3423 8.87705 37.3929 8.81262C37.4434 8.74819 37.5166 8.70556 37.5975 8.69342H40.8505C41.0322 8.67564 41.1776 8.82142 41.1962 9.00453V9.04008L41.0686 26.7165ZM18.918 0.0018629H22.0974C22.2791 -0.0159149 22.4254 0.128974 22.4431 0.293418V32.7468C22.4609 32.929 22.3155 33.0756 22.1338 33.0934H18.918C18.7363 33.1112 18.59 32.9654 18.5723 32.7832V0.34853C18.645 0.147641 18.7726 0.0018629 18.918 0.0018629ZM13.5572 10.3343C12.2675 9.31297 10.3778 8.76631 7.72484 8.76631C6.51707 8.74825 5.31078 8.8585 4.12615 9.0952C3.26489 9.30083 2.45874 9.69246 1.76396 10.2428C1.16377 10.7028 0.694087 11.3123 0.401599 12.0108C0.133084 12.6827 -0.00268375 13.4006 0.00184346 14.1245V14.9441C-0.0158841 15.1263 0.128595 15.273 0.292575 15.2908H3.50835C3.57807 15.2829 3.64306 15.2516 3.69267 15.2018C3.74228 15.1521 3.77355 15.0869 3.78135 15.017C3.83542 14.2881 4.12704 13.5956 4.59859 13.049C5.14371 12.4294 6.16127 12.1014 7.65216 12.1014C8.28769 12.0285 8.94184 12.1014 9.55964 12.3014C9.97801 12.4659 10.3778 12.6845 10.7048 12.977C11.195 13.4499 11.4857 14.1236 11.5221 14.817V15.7645C11.5221 16.0925 11.4494 16.4205 11.3226 16.7121C11.2144 16.9676 11.0534 17.1973 10.8502 17.3859C10.7041 17.5808 10.5183 17.7424 10.3051 17.8596C10.1582 17.9682 9.99979 18.0601 9.83265 18.1334C9.75996 18.2063 9.48696 18.2605 8.96045 18.4801C8.41533 18.6801 7.94289 18.8801 7.27013 19.0988C6.59737 19.2996 5.9255 19.4996 5.23501 19.7734C4.54364 20.0463 3.94445 20.1734 3.40021 20.393C2.34542 20.7396 1.43689 21.4499 0.891765 22.4339C0.324964 23.355 0.0174435 24.4129 0.00184346 25.4952V27.5912C0.0432447 28.1924 0.159373 28.786 0.34753 29.3583C0.563288 30.04 0.958285 30.6507 1.49096 31.1263C2.1418 31.7583 2.93282 32.2265 3.79908 32.4925C5.0533 32.8748 6.36159 33.0579 7.65216 33.0392C8.95881 33.0958 10.2647 32.9105 11.5044 32.4925C12.3855 32.2119 13.1968 31.7461 13.8843 31.1263C14.4292 30.6611 14.8271 30.0467 15.0295 29.3583C15.2435 28.7931 15.3604 28.1956 15.3752 27.5912V14.2703C15.385 13.5197 15.2268 12.7765 14.9123 12.0954C14.5979 11.4142 14.1342 10.8124 13.5572 10.3343ZM10.7784 28.7574C10.2333 29.3041 9.21573 29.6321 7.72573 29.6321C6.23484 29.6321 5.23501 29.3583 4.69078 28.8303C4.0892 28.1093 3.79524 27.1796 3.87265 26.2428C3.87265 25.7503 4.00029 25.2588 4.20061 24.8205C4.41777 24.4748 4.65443 24.1654 4.94517 23.8739C5.21728 23.673 5.61704 23.4721 5.96273 23.2534C6.36248 23.0534 6.98029 22.9068 7.45272 22.7068C7.93479 22.4868 8.43291 22.304 8.94272 22.1601C9.48784 22.033 9.96028 21.8134 10.4327 21.6863C10.6694 21.6134 10.9052 21.5041 11.1055 21.3583C11.3599 21.2125 11.523 20.9583 11.5779 20.6845V26.2605C11.6297 26.7098 11.5851 27.165 11.4472 27.5956C11.3093 28.0262 11.0813 28.4223 10.7784 28.7574Z" fill="white"/>
<path d="M0.000877787 41.4764C0.000877787 41.1484 0.255268 40.8569 0.618682 40.8569H8.1972C12.0308 40.8569 15.1739 43.4996 15.1739 46.9253C15.1739 49.4409 12.9393 51.2631 11.413 52.0827C13.1387 52.7938 15.7739 54.3964 15.7739 57.3858C15.7739 61.0302 12.5573 63.672 8.68737 63.672H0.618682C0.537353 63.6727 0.456698 63.6572 0.381422 63.6263C0.306146 63.5954 0.237758 63.5498 0.180248 63.4921C0.122737 63.4344 0.0772569 63.3659 0.0464605 63.2904C0.0156641 63.2149 0.000168484 63.134 0.000877787 63.0524V41.4764ZM7.61485 50.1147C8.85046 50.1147 9.88663 49.0756 9.88663 47.7636C9.88663 46.4516 8.85046 45.5413 7.61485 45.5413H5.07095V50.096H7.61485V50.1138V50.1147ZM8.03322 59.0071C9.30517 59.0071 10.3768 57.9689 10.3768 56.6204C10.3768 55.3076 8.9781 54.3422 7.70615 54.3422H5.07006V59.0071H8.03322Z" fill="url(#paint0_linear_105_98)"/>
<path d="M29.893 40.5289C36.399 40.5289 41.5958 45.7769 41.5958 52.3013C41.5958 58.8249 36.399 64 29.893 64C23.3879 64 18.2274 58.8249 18.2274 52.3013C18.2274 45.7769 23.4065 40.5289 29.893 40.5289ZM29.893 58.7884C33.4731 58.7884 36.399 55.8551 36.399 52.3013C36.399 48.7111 33.4731 45.7591 29.893 45.7591C26.3502 45.7591 23.4242 48.7298 23.4242 52.3013C23.442 55.8542 26.3493 58.7884 29.893 58.7884Z" fill="url(#paint1_linear_105_98)"/>
<path d="M55.5332 40.5289C62.0384 40.5289 67.2352 45.7769 67.2352 52.3013C67.2352 58.8249 62.0384 64 55.5332 64C49.0272 64 43.8668 58.8249 43.8668 52.3013C43.8668 45.7769 49.0459 40.5289 55.5332 40.5289ZM55.5332 58.7884C59.1124 58.7884 62.0384 55.8551 62.0384 52.3013C62.0384 48.7111 59.1133 45.7591 55.5324 45.7591C51.9895 45.7591 49.0636 48.7298 49.0636 52.3013C49.0813 55.8542 51.9895 58.7884 55.5332 58.7884Z" fill="url(#paint2_linear_105_98)"/>
<path d="M69.8704 60.5742L71.3967 57.8773C71.6511 57.4578 72.2689 57.5129 72.5047 57.6764C72.6324 57.7493 74.9759 59.4631 77.1201 59.4631C78.4284 59.4631 79.3555 58.6427 79.3555 57.5129C79.3555 56.1458 78.2103 55.1076 76.0121 54.2151C73.2138 53.1031 69.7064 50.9164 69.7064 47.0169C69.7064 43.7911 72.2149 40.5289 77.2114 40.5289C80.5911 40.5289 83.19 42.2604 84.1712 42.9707C84.5523 43.208 84.4983 43.7911 84.3706 44.0098L82.7167 46.5253C82.4809 46.8898 81.8994 47.1804 81.6087 46.9431C81.318 46.7796 78.9371 44.9938 76.957 44.9938C75.7941 44.9938 74.9032 45.7769 74.9032 46.6524C74.9032 47.8551 75.8845 48.7662 78.447 49.8044C80.9732 50.8071 85.0062 52.8115 85.0062 57.2391C85.0062 60.592 82.1175 63.9822 77.339 63.9822C73.1225 63.9822 70.7789 62.2142 70.0335 61.4667C69.7064 61.1573 69.616 61.0302 69.8704 60.5742Z" fill="url(#paint3_linear_105_98)"/>
<path d="M91.9119 45.6498H87.2602C87.1789 45.6505 87.0982 45.6349 87.023 45.6041C86.9477 45.5732 86.8793 45.5276 86.8218 45.4699C86.7643 45.4122 86.7188 45.3436 86.688 45.2682C86.6572 45.1927 86.6417 45.1118 86.6424 45.0302V41.4764C86.6424 41.1484 86.8968 40.8569 87.2602 40.8569H101.688C102.051 40.8569 102.306 41.1484 102.306 41.4764V45.0302C102.306 45.1118 102.291 45.1927 102.26 45.2682C102.229 45.3436 102.184 45.4122 102.126 45.4699C102.069 45.5276 102 45.5732 101.925 45.6041C101.85 45.6349 101.769 45.6505 101.688 45.6498H97.0361V63.0524C97.0314 63.2153 96.9648 63.3701 96.8499 63.4853C96.7351 63.6005 96.5806 63.6673 96.4183 63.672H92.5111C92.3487 63.6673 92.1943 63.6005 92.0794 63.4853C91.9646 63.3701 91.898 63.2153 91.8933 63.0524L91.9119 45.6498Z" fill="url(#paint4_linear_105_98)"/>
</g>
<defs>
<linearGradient id="paint0_linear_105_98" x1="-4.06848" y1="54.2053" x2="97.6333" y2="32.7053" gradientUnits="userSpaceOnUse">
<stop stop-color="#00C86F"/>
<stop offset="0.996" stop-color="#00E6AB"/>
<stop offset="1" stop-color="#00E6AB"/>
</linearGradient>
<linearGradient id="paint1_linear_105_98" x1="-2.99953" y1="59.2613" x2="98.7023" y2="37.7612" gradientUnits="userSpaceOnUse">
<stop stop-color="#00C86F"/>
<stop offset="0.996" stop-color="#00E6AB"/>
<stop offset="1" stop-color="#00E6AB"/>
</linearGradient>
<linearGradient id="paint2_linear_105_98" x1="-1.89685" y1="64.4782" x2="99.805" y2="42.9773" gradientUnits="userSpaceOnUse">
<stop stop-color="#00C86F"/>
<stop offset="0.996" stop-color="#00E6AB"/>
<stop offset="1" stop-color="#00E6AB"/>
</linearGradient>
<linearGradient id="paint3_linear_105_98" x1="-0.966157" y1="68.8809" x2="100.736" y2="47.3799" gradientUnits="userSpaceOnUse">
<stop stop-color="#00C86F"/>
<stop offset="0.996" stop-color="#00E6AB"/>
<stop offset="1" stop-color="#00E6AB"/>
</linearGradient>
<linearGradient id="paint4_linear_105_98" x1="-0.335929" y1="71.8613" x2="101.366" y2="50.3612" gradientUnits="userSpaceOnUse">
<stop stop-color="#00C86F"/>
<stop offset="0.996" stop-color="#00E6AB"/>
<stop offset="1" stop-color="#00E6AB"/>
</linearGradient>
<clipPath id="clip0_105_98">
<rect width="102.82" height="64" fill="white"/>
</clipPath>
</defs>
</svg>
