<svg width="164" height="32" viewBox="0 0 164 32" fill="none" xmlns="http://www.w3.org/2000/svg">
<g clip-path="url(#clip0_105_106)">
<path fill-rule="evenodd" clip-rule="evenodd" d="M6.49804 0L32.4512 0.0828194C33.2075 0.0725499 33.9464 0.311022 34.554 0.761569C35.1617 1.21212 35.6045 1.84979 35.8145 2.57654C35.9406 3.01923 35.9826 3.48167 35.9382 3.93984L35.9258 4.06944L35.7806 3.98071L35.58 3.86562L35.3762 3.75806L35.1686 3.65373L34.9578 3.55424L34.7427 3.46067L34.5276 3.37193L34.3065 3.28911L34.0828 3.21167L33.8559 3.14014L33.6257 3.07453L33.3928 3.01484L33.1567 2.96106L32.9185 2.9132L32.6776 2.87125L32.4339 2.83576L32.1876 2.80672L31.9386 2.78413L31.688 2.76746L31.4347 2.75778L31.1728 2.75401L30.7275 2.76423L30.2779 2.79488L29.8321 2.84544L29.3895 2.91589L28.9512 3.00516L28.5178 3.11272L28.0875 3.23856L27.6648 3.38269L27.2486 3.54402L26.8393 3.72203L26.4371 3.91617L26.0429 4.12699L25.6573 4.35232L25.2808 4.59325L24.913 4.84816L24.5553 5.11705L24.2074 5.39993L23.8702 5.69625L23.5438 6.00548L23.2292 6.32815C22.3687 7.17194 21.9035 7.04341 21.3727 6.32815L21.1269 6.00548L20.8672 5.69679L20.5935 5.40047L20.3063 5.11759L20.0062 4.8487L19.6932 4.59379L19.3705 4.35286L19.0333 4.12752L18.6843 3.91725L18.324 3.72257L17.9529 3.54456L17.5711 3.38322L17.1796 3.2391L16.7784 3.11325L16.3681 3.0057L15.9491 2.91642L15.5216 2.84597L15.086 2.79542L14.6434 2.76477L14.1916 2.75455L13.6823 2.76799L13.1741 2.80725L12.6702 2.87179L12.1712 2.9616L11.678 3.07561L11.194 3.21275L10.7148 3.37408L10.2437 3.55639L9.78123 3.76021L9.32842 3.98501L8.88582 4.2297L8.45559 4.49429L8.03558 4.77771L7.62793 5.07887L7.2332 5.39778L6.8519 5.73336L6.48513 6.08615L6.13288 6.45399L5.79623 6.83744L5.47355 7.2354L5.17024 7.64735L4.88468 8.0722L4.61578 8.50996L4.36786 8.96009L4.13984 9.42097L3.93225 9.89261L3.74618 10.3766L3.58215 10.8676L3.44071 11.3672L3.32294 11.8744L3.22936 12.3885L3.16106 12.9005L3.13579 13.1694L3.1175 13.4291L3.10567 13.6867L3.10083 13.9427V14.1976L3.10836 14.4504L3.12234 14.701L3.14278 14.9494L3.16913 15.1963L3.2014 15.441L3.23958 15.683L3.28422 15.9223L3.33423 16.1595L3.38801 16.3939L3.44986 16.6257L3.51708 16.8548L3.59022 17.0812L3.66874 17.3044L3.75263 17.5249L3.8419 17.74L3.93655 17.9551L4.03605 18.1659L4.1436 18.3735L4.25116 18.5779L4.36625 18.7785L4.48617 18.9753L4.61094 19.1689L4.74001 19.3582L4.87446 19.5443L5.01321 19.7261L5.1568 19.9046L5.32943 20.1079L11.6269 26.2032C12.2588 26.5705 12.7498 26.7792 13.7447 26.1026L15.5668 24.585C15.7003 24.4642 15.8084 24.318 15.8847 24.155C15.9611 23.9919 16.0043 23.8153 16.0116 23.6354C16.019 23.4555 15.9904 23.276 15.9276 23.1073C15.8648 22.9385 15.769 22.784 15.6458 22.6527L9.19236 16.3391L9.12244 16.2525L9.05361 16.1621L8.98746 16.0702L8.92346 15.9755L8.86162 15.8798L8.80246 15.7825L8.74545 15.6835L8.69168 15.5824L8.6379 15.4797L8.58896 15.3759L8.54271 15.2683L8.49861 15.1608L8.4572 15.0532L8.41902 14.9457L8.38299 14.8349L8.35018 14.723L8.32006 14.6101L8.29264 14.4955L8.2679 14.3799L8.24639 14.2632L8.22757 14.1454L8.21143 14.0255L8.19906 13.905L8.18938 13.784L8.18239 13.662L8.17863 13.5383V13.2877L8.18454 13.1602L8.19368 13.0317L8.2039 12.9241L8.24101 12.6418L8.28726 12.3885L8.34534 12.14L8.41418 11.8964L8.49431 11.6571L8.58519 11.4221L8.6863 11.1919L8.79762 10.9666L8.91916 10.7466L9.05038 10.5315L9.19128 10.3223L9.34079 10.119L9.4989 9.92219L9.66615 9.73235L9.84093 9.5495L10.0227 9.37472L10.212 9.20801L10.4083 9.0499L10.6105 8.90039L10.8186 8.76003L11.0337 8.62989L11.2521 8.50942L11.4747 8.39917L11.7011 8.29968L11.9313 8.21041L12.1652 8.13189L12.403 8.06521L12.6433 8.01143L12.887 7.96787L13.1338 7.9356L13.386 7.91839L13.6452 7.9114L13.8604 7.91624L14.0787 7.9313L14.2938 7.95604C16.2007 8.27269 17.908 9.32294 19.0505 10.8821C20.1622 12.1599 21.5927 13.8674 24.5419 11.072C25.8882 9.61231 27.6171 8.55975 29.532 8.03402L29.7472 7.99045L29.9623 7.95604L30.1811 7.9313L30.4027 7.91624L30.6447 7.91086H30.7523L30.8781 7.9157L31.0018 7.92377L31.1239 7.93506L31.2444 7.94958L31.3637 7.96679L31.4815 7.98723L31.5977 8.01035L31.7128 8.0367L31.8262 8.06575L31.9386 8.09801L32.0489 8.13297L32.1564 8.17061L32.264 8.21095L32.3716 8.25451L32.4764 8.30022L32.5797 8.34862L32.6813 8.4024L32.7819 8.45618L32.8803 8.51265L32.9771 8.57127L33.0723 8.63311L33.1664 8.69711L33.2578 8.76326L33.3471 8.83209L33.4353 8.90362L33.5214 8.9773L33.6052 9.05312L33.687 9.1311L33.7671 9.21177L33.8456 9.29459L33.9209 9.37849L33.9941 9.46453L34.0656 9.55327L34.1344 9.64361L34.2011 9.73558L34.2651 9.82969L34.327 9.92595L34.3867 10.0238L34.4437 10.1228L34.4974 10.2234L34.5512 10.3266L34.6007 10.4304L34.6469 10.538L34.6905 10.6455L34.7319 10.7531L34.7701 10.8606L34.8056 10.9714L34.8384 11.0833L34.8685 11.1967L34.8959 11.3113L34.9207 11.4264L34.9422 11.5431L34.961 11.6614L34.9771 11.7813L34.9901 11.9012L34.9997 12.0223L35.0067 12.1449L35.0105 12.2686V12.5186L35.0046 12.6461L34.9954 12.7746L34.9831 12.9042L34.9675 13.0333L34.9486 13.1618L34.9271 13.2893L34.9024 13.4151L34.875 13.5399L34.8443 13.6636L34.8115 13.7862L34.7755 13.9072L34.7368 14.0271L34.6953 14.1465L34.6512 14.2648L34.6045 14.3815L34.555 14.4972L34.5012 14.6117L34.4474 14.7252L34.3904 14.837L34.3307 14.9478L34.2689 15.0554L34.2043 15.1629L34.1377 15.2705L34.0688 15.378L33.9973 15.4818L33.9236 15.5846L33.8472 15.6857L33.7693 15.7852L33.6891 15.8825L33.6069 15.9782L33.5224 16.0723L33.4358 16.1643L33.3476 16.2546L33.2605 16.3402L19.0274 27.8811C17.6222 28.8964 18.41 30.2474 19.1888 30.2678L22.4919 30.2576C23.7659 30.3081 24.0998 29.758 25.2534 28.876L34.2694 21.7234L33.6649 28.164C33.5486 29.2053 33.0573 30.1686 32.2827 30.8742C31.5082 31.5798 30.5033 31.9794 29.4557 31.9984L3.50256 31.9156C3.01053 31.9216 2.52285 31.8229 2.07193 31.6259C1.62101 31.429 1.21719 31.1383 0.887291 30.7732C0.557397 30.4081 0.308995 29.9769 0.158597 29.5084C0.00819907 29.0399 -0.0407498 28.5448 0.0150043 28.0559L2.28716 3.83335C2.40377 2.79198 2.89542 1.82866 3.67031 1.12325C4.44519 0.417838 5.45033 0.0185711 6.49804 0Z" fill="#EC1C24"/>
<path fill-rule="evenodd" clip-rule="evenodd" d="M93.9355 14.2982C94.0568 15.179 94.0699 16.0713 93.9747 16.9554L92.9373 28.4076C92.9339 28.6074 92.8885 28.8042 92.8039 28.9852C92.7193 29.1662 92.5975 29.3274 92.4464 29.4582C92.2953 29.5889 92.1184 29.6864 91.9271 29.7442C91.7358 29.8019 91.5345 29.8187 91.3363 29.7935C90.1767 29.8236 89.0173 29.7262 87.8789 29.503C87.607 29.4396 87.3401 29.3564 87.0803 29.2541C86.9431 29.2003 86.7996 29.1325 86.6587 29.0927C86.4335 29.044 86.2 29.0492 85.9773 29.1078C85.2338 29.2716 84.5007 29.4798 83.782 29.7311C82.8849 30.0126 81.9494 30.1521 81.0092 30.1446C79.0963 30.1446 77.2414 29.6859 75.833 28.3205C75.7236 28.2129 75.6186 28.1019 75.5178 27.9876C73.2403 29.0266 69.2628 30.4684 67.2047 28.7636C65.9995 27.7655 65.9065 26.0542 66.0259 24.6097L66.5131 19.3259C66.5911 18.4795 66.6287 17.2694 66.1367 16.5354C65.8826 16.221 65.5546 15.9745 65.1821 15.8177C64.8096 15.6609 64.404 15.5987 64.0016 15.6367C63.5592 15.6197 63.1184 15.698 62.7089 15.8663C62.2994 16.0346 61.9309 16.289 61.6284 16.6123C61.0165 17.3675 60.6654 18.3004 60.6276 19.2716L59.7832 28.8685C59.7594 29.1236 59.6381 29.3598 59.4446 29.5278C59.2511 29.6958 59.0002 29.7826 58.7442 29.7703L53.7681 29.7639C53.6327 29.779 53.4956 29.7636 53.3671 29.7186C53.2385 29.6737 53.1216 29.6004 53.0252 29.5042C52.9287 29.408 52.8551 29.2913 52.8098 29.1629C52.7645 29.0344 52.7487 28.8974 52.7635 28.762L53.5954 19.3082C53.6697 18.4639 53.7068 17.2538 53.219 16.5225C52.9646 16.2078 52.6364 15.9608 52.2635 15.8035C51.8907 15.6463 51.4847 15.5836 51.0818 15.6211C50.6395 15.6041 50.1986 15.6824 49.7892 15.8508C49.3798 16.0193 49.0114 16.2738 48.7091 16.5972C48.0971 17.3521 47.746 18.2849 47.7083 19.256L46.8639 28.8512C46.8529 29.1016 46.743 29.3374 46.5583 29.5068C46.3735 29.6762 46.1291 29.7654 45.8787 29.7547H45.8685L40.781 29.7483C40.6533 29.7498 40.5265 29.7249 40.4088 29.6752C40.2911 29.6256 40.1848 29.5522 40.0967 29.4596C40.0086 29.3671 39.9405 29.2574 39.8967 29.1373C39.8529 29.0173 39.8343 28.8895 39.8421 28.762V28.7523L41.392 11.1446V11.1338C41.4229 10.8151 41.5787 10.5216 41.8254 10.3174C42.0721 10.1133 42.3896 10.0151 42.7085 10.0443H42.7235C45.1156 10.1066 46.5192 10.5401 48.3509 12.1416L48.6844 12.4337L49.0108 12.1325C49.8356 11.3718 50.7927 10.7685 51.8347 10.3524C52.8694 9.94245 53.9727 9.73293 55.0857 9.73504C56.1542 9.71016 57.2146 9.92632 58.1881 10.3675C59.0483 10.7908 59.7759 11.4418 60.292 12.2497L60.6071 12.7268L61.0336 12.3455C62.9082 10.6636 65.3407 9.73804 67.8592 9.74848C69.5516 9.74848 71.3935 10.0862 72.5874 11.392C73.7813 12.6977 73.9625 14.5649 73.8082 16.2498C73.5705 18.8491 73.3333 21.4484 73.0967 24.0477C73.0929 24.0859 73.0843 24.2817 73.1241 24.3118C73.2263 24.3887 73.57 24.3414 73.6856 24.3188C73.8622 24.2818 74.0356 24.2307 74.204 24.166C74.2094 23.6908 74.2659 23.2175 74.3723 22.7543C74.4398 22.459 74.5253 22.168 74.6283 21.8831C75.0759 20.6573 75.8797 19.5932 76.9365 18.8274C78.77 17.5446 80.974 16.8995 83.2098 16.9914C83.7792 16.9953 84.3464 17.0632 84.9006 17.1936H84.9081C85.7351 17.3989 86.5217 17.7416 87.2352 18.2073L87.3906 16.8005C87.4683 16.356 87.4046 15.8983 87.2085 15.492C87.0123 15.0856 86.6936 14.751 86.2972 14.5353C85.3152 14.0078 83.576 13.9658 82.4709 13.9642C81.4835 13.9642 80.4961 13.9846 79.5098 14.0416C79.1323 14.0632 78.7548 14.0872 78.3773 14.1137H78.3692C78.1997 14.1285 78.0292 14.1021 77.8722 14.0366C77.7152 13.9711 77.5764 13.8686 77.4677 13.7378C77.3589 13.6069 77.2835 13.4517 77.2479 13.2854C77.2122 13.1191 77.2174 12.9466 77.263 12.7827L77.6797 11.3624C77.7511 11.0857 77.9144 10.8415 78.1429 10.6699C78.3714 10.4983 78.6515 10.4095 78.9371 10.418C79.9051 10.347 80.8677 10.2502 81.8341 10.1965C82.8368 10.1331 83.8411 10.1012 84.8458 10.1007C86.9878 10.1034 90.7711 10.2449 92.5066 11.5592C93.0234 11.9634 93.4143 12.5067 93.6332 13.1253L93.8252 10.9295V10.9235C93.8213 10.7934 93.8449 10.6638 93.8945 10.5434C93.9442 10.4229 94.0187 10.3144 94.1133 10.2248C94.2078 10.1352 94.3203 10.0666 94.4432 10.0236C94.5661 9.9805 94.6968 9.96391 94.8266 9.97489L97.6419 9.97812L98.1065 4.84869L98.1098 4.81589L98.1162 4.78362C98.2528 4.12322 98.6115 3.6419 99.3531 3.68008L104.189 3.69353C104.35 3.68106 104.512 3.70565 104.662 3.7654C104.812 3.82516 104.946 3.91849 105.055 4.03825C105.242 4.30571 105.318 4.63538 105.267 4.95787V4.97938L104.799 9.98672L108.393 9.99102H108.408C108.554 9.97929 108.701 10.0017 108.836 10.0565C108.972 10.1113 109.093 10.197 109.19 10.3067C109.27 10.4268 109.323 10.5631 109.345 10.7059C109.366 10.8486 109.356 10.9944 109.315 11.1327L109.108 13.4087C109.117 13.5448 109.098 13.6813 109.05 13.8093C109.003 13.9372 108.93 14.0538 108.834 14.1513C108.739 14.2488 108.624 14.325 108.497 14.375C108.37 14.4249 108.234 14.4475 108.098 14.4412H108.087L104.397 14.4369L103.59 21.4432C103.455 22.5376 103.549 24.0665 104.595 24.7135C104.919 24.8824 105.277 24.9742 105.642 24.9819C106.007 24.9895 106.369 24.9128 106.699 24.7576L107.702 24.2343C107.261 22.9737 107.106 21.6305 107.249 20.3026C107.372 18.847 107.821 17.4376 108.561 16.1783L108.565 16.1713L108.71 15.9357C109.442 14.7971 110.366 13.7929 111.439 12.9671C114.011 10.9476 117.204 9.88317 120.474 9.95553C122.762 9.89311 125.017 10.5136 126.951 11.7378C128.102 12.4887 129.055 13.5072 129.728 14.7063L130.015 11.5447L130.047 11.464C130.185 11.087 130.44 10.7645 130.776 10.5446C131.112 10.3247 131.509 10.2192 131.91 10.2438H131.916L135.819 10.2486H135.831C136.032 10.241 136.233 10.2744 136.42 10.3466C136.608 10.4188 136.779 10.5283 136.923 10.6686C137.039 10.8091 137.12 10.9746 137.161 11.1519C137.201 11.3292 137.2 11.5136 137.157 11.6904L136.346 20.6478C136.27 21.4938 136.243 22.6742 136.739 23.4067C136.988 23.7235 137.313 23.9731 137.683 24.1328C138.054 24.2924 138.458 24.3571 138.86 24.3209C139.312 24.3447 139.764 24.2743 140.187 24.1142C140.611 23.954 140.996 23.7076 141.319 23.3905C141.947 22.6311 142.306 21.6859 142.341 20.7016L143.161 11.6555V11.6458C143.173 11.2906 143.316 10.9525 143.563 10.6964C143.809 10.4404 144.142 10.2843 144.496 10.2583H144.51L149.193 10.2642L149.222 10.2669C149.399 10.2752 149.572 10.3238 149.727 10.4089C149.883 10.4939 150.017 10.6133 150.119 10.7579C150.3 11.0779 150.365 11.4508 150.302 11.813L149.212 24.1779C150.139 24.5319 151.121 24.723 152.113 24.7425C152.748 24.7651 153.375 24.6071 153.924 24.287C154.168 24.1464 154.374 23.9497 154.527 23.7132C154.68 23.4767 154.775 23.2072 154.803 22.927C154.896 21.9025 153.502 20.7167 152.792 20.1305C152.544 19.9315 152.298 19.7304 152.048 19.5335L152.037 19.5249L152.026 19.5158C151.463 19.0454 151.01 18.4581 150.696 17.7949C150.422 17.1831 150.314 16.5101 150.382 15.8432C150.454 14.976 150.739 14.1401 151.212 13.4097C151.685 12.6793 152.331 12.077 153.093 11.6566C155.112 10.4137 157.673 10.0798 160.005 10.083C160.581 10.083 161.157 10.1126 161.731 10.1637C162.03 10.19 162.33 10.2142 162.628 10.2551C162.807 10.2643 162.982 10.3129 163.14 10.3974C163.298 10.4819 163.436 10.6002 163.544 10.744C163.651 10.8877 163.726 11.0533 163.762 11.2291C163.798 11.4048 163.795 11.5864 163.753 11.7609L163.524 13.8792C163.518 14.0503 163.474 14.2179 163.395 14.3698C163.316 14.5217 163.204 14.654 163.068 14.7569C162.715 14.9664 162.298 15.0407 161.895 14.9661C161.445 14.9252 160.993 14.9042 160.542 14.9032C159.945 14.8811 159.352 15.0131 158.821 15.2866C158.585 15.4096 158.384 15.5888 158.235 15.8082C158.085 16.0276 157.992 16.2805 157.964 16.5445C157.944 16.9143 158.045 17.2805 158.253 17.5873C158.584 18.0383 158.966 18.4491 159.393 18.8113C160.328 19.6346 161.528 20.7538 162.088 21.8697C162.48 22.6832 162.637 23.5903 162.54 24.4882C162.487 25.311 162.236 26.1088 161.81 26.8144C161.383 27.5199 160.793 28.1123 160.089 28.5415C158.282 29.7187 155.945 30.0322 153.828 30.0301C152.657 30.0051 151.492 29.8662 150.348 29.6154C149.186 29.3996 148.051 29.0569 146.963 28.5936C145.549 28.2129 144.124 27.5805 142.654 27.475C142.058 27.4439 141.472 27.6292 141.003 27.9967L140.981 28.0134L140.962 28.03C140.183 28.7332 139.274 29.2776 138.287 29.6327C137.219 30.0018 136.094 30.1826 134.964 30.1672C133.262 30.1672 131.35 29.8499 130.133 28.5479C128.935 27.2658 128.76 25.4035 128.912 23.7337L129.553 16.6596C129.382 16.8457 129.176 16.9954 128.946 17.0995L116.047 24.2757C119.373 25.6342 122.291 25.6471 125.648 23.745C125.86 23.6409 126.098 23.5989 126.333 23.6237C126.568 23.6486 126.792 23.7392 126.978 23.8853C127.189 24.0347 127.354 24.2405 127.454 24.4793C127.554 24.7181 127.585 24.9802 127.543 25.2357C127.502 25.4911 127.462 25.7466 127.439 26.0037C127.415 26.2817 127.394 26.5576 127.365 26.8351V26.8598C127.117 28.527 125.049 29.2885 123.617 29.6181C121.942 30.0041 120.227 30.195 118.508 30.1871C115.488 30.1833 112.427 29.5504 110.077 27.545C107.683 28.7921 105.148 29.8273 102.405 29.8246C100.804 29.8838 98.8939 29.723 97.6941 28.534C96.3334 27.183 96.3012 24.906 96.4631 23.1206L97.2509 14.4299L94.4474 14.4267H94.3996L94.3522 14.4186C94.2116 14.4 94.0746 14.3598 93.9462 14.2992L93.9355 14.2982ZM113.896 20.9969L122.132 16.31L122.161 16.2977C122.843 16.0024 122.892 15.6469 122.276 15.2221C120.186 13.7754 117.628 14.4305 115.7 15.8196C113.914 17.1054 113.451 18.9231 113.896 20.9969ZM86.1461 25.0797C86.4508 24.8607 86.7059 24.5798 86.8947 24.2555C87.0834 23.9311 87.2017 23.5706 87.2416 23.1975C87.275 22.8354 87.2219 22.4705 87.0866 22.133C86.9513 21.7954 86.7377 21.4949 86.4634 21.2561C85.8908 20.7315 85.1376 20.4485 84.3612 20.4661C83.5749 20.4607 82.8108 20.7266 82.1977 21.219C81.8936 21.4389 81.6393 21.7205 81.4514 22.0454C81.2636 22.3703 81.1464 22.7312 81.1076 23.1044C81.0679 23.4667 81.116 23.8332 81.2479 24.1729C81.3798 24.5126 81.5916 24.8155 81.8653 25.0561C82.4413 25.5686 83.1921 25.8404 83.9627 25.8154C84.7512 25.8219 85.519 25.5638 86.1434 25.0824L86.1461 25.0797Z" fill="#0066B2"/>
<path fill-rule="evenodd" clip-rule="evenodd" d="M94.1522 13.7373L94.1812 13.7663C94.2612 13.8076 94.3482 13.8335 94.4377 13.8427L97.3267 13.8464H97.8764L97.0315 23.1695C96.8884 24.7458 96.8793 26.9131 98.0931 28.1172C99.1606 29.1766 100.959 29.2944 102.374 29.2417H102.393C105.053 29.2449 107.525 28.2161 109.845 27.0034L110.148 26.8453L110.406 27.0685C112.651 29.0045 115.606 29.6009 118.499 29.6042C120.173 29.6119 121.843 29.4262 123.475 29.0508C124.784 28.7496 126.586 28.0828 126.78 26.7727C126.873 25.8913 126.822 26.0133 126.963 25.1416C126.985 25.0061 126.972 24.8672 126.925 24.7382C126.878 24.6092 126.799 24.4945 126.695 24.4049C126.591 24.3153 126.466 24.2539 126.331 24.2266C126.197 24.1993 126.058 24.2069 125.927 24.2489C122.109 26.4145 118.752 26.2467 114.741 24.3333L128.676 16.58L128.693 16.5719C128.909 16.4788 129.093 16.3237 129.221 16.1261L129.488 15.6959L129.301 15.1715C129.282 15.1159 129.257 15.0619 129.229 15.0102C128.601 13.8823 127.707 12.9248 126.624 12.2207C124.785 11.0601 122.642 10.4736 120.469 10.5358C117.331 10.4647 114.265 11.4859 111.796 13.4248C110.775 14.2089 109.895 15.1629 109.196 16.245L109.056 16.4741C108.359 17.6591 107.938 18.9858 107.823 20.3558C107.683 21.6191 107.834 22.8975 108.264 24.0934L108.426 24.5108L106.936 25.2873L106.91 25.2981C106.496 25.4879 106.043 25.5785 105.588 25.5626C105.132 25.5467 104.687 25.4248 104.287 25.2067C103.021 24.4226 102.846 22.7124 103.012 21.3722L103.828 14.3009L103.881 13.855H104.33L108.09 13.8593C108.432 13.8534 108.506 13.6905 108.532 13.3587L108.738 11.0747V11.0542L108.742 11.0333C108.807 10.6627 108.776 10.5804 108.392 10.5697L104.712 10.5654H104.161L104.215 10.0163L104.691 4.92399C104.715 4.48461 104.669 4.27273 104.192 4.27326L99.3521 4.25982H99.3273C98.8971 4.23723 98.7685 4.52226 98.6906 4.90086L98.2195 10.1013L98.1781 10.5589H97.7183L94.8314 10.5552C94.5372 10.5552 94.4275 10.6665 94.4098 10.9623V10.9752L94.1888 13.5028V13.5152L94.1576 13.7383L94.1522 13.7373ZM130.342 14.3014L129.482 23.7858C129.347 25.2771 129.475 27.0018 130.549 28.1505C131.644 29.3213 133.431 29.5843 134.959 29.5859C136.022 29.601 137.079 29.4318 138.084 29.0857C139.001 28.756 139.845 28.2503 140.569 27.5971L140.61 27.5606L140.655 27.5272C141.235 27.0787 141.958 26.8545 142.69 26.8959C144.226 27.0034 145.642 27.6391 147.114 28.0344L147.155 28.0456L147.193 28.0634C149.306 28.9054 151.549 29.3742 153.822 29.4487C155.816 29.4487 158.062 29.1642 159.766 28.0543C160.395 27.6731 160.923 27.1452 161.304 26.5156C161.685 25.8861 161.908 25.1737 161.953 24.4392C162.04 23.6486 161.904 22.8493 161.56 22.1321C161.05 21.1141 159.854 20.002 158.998 19.2474C158.535 18.8522 158.119 18.404 157.761 17.9121L157.756 17.9046L157.752 17.8976C157.476 17.4844 157.343 16.9919 157.375 16.4961C157.411 16.1394 157.534 15.797 157.734 15.4991C157.933 15.2011 158.203 14.9568 158.519 14.7876C159.138 14.4615 159.832 14.3023 160.532 14.3256C161 14.3256 161.47 14.3487 161.936 14.3907C162.435 14.4348 162.892 14.4213 162.935 13.8292L163.167 11.6931C163.238 11.1849 163.052 10.9031 162.538 10.8327C162.25 10.7929 161.96 10.7697 161.67 10.7445C161.113 10.6938 160.554 10.6676 159.995 10.6659C157.779 10.6659 155.307 10.973 153.387 12.1535C152.702 12.5268 152.121 13.0644 151.696 13.7181C151.27 14.3717 151.014 15.1209 150.95 15.8981C150.892 16.4654 150.983 17.0381 151.216 17.5588C151.496 18.1447 151.9 18.663 152.399 19.078C152.65 19.2754 152.898 19.4781 153.149 19.6804C154.058 20.4333 155.489 21.6842 155.372 22.9802C155.336 23.3493 155.213 23.7047 155.014 24.0172C154.814 24.3298 154.543 24.5907 154.224 24.7786C153.583 25.1583 152.847 25.3475 152.103 25.3239C151.024 25.3043 149.957 25.0952 148.951 24.706L148.584 24.5758L149.713 11.763C149.755 11.2871 149.723 10.9026 149.153 10.8488L144.514 10.8429C144.042 10.8649 143.787 11.2451 143.728 11.7216L142.909 20.7565C142.865 21.8697 142.451 22.9366 141.734 23.7891C141.357 24.1642 140.906 24.4568 140.409 24.6483C139.913 24.8399 139.382 24.9262 138.851 24.9017C138.354 24.9405 137.855 24.8538 137.401 24.6495C136.946 24.4452 136.55 24.1299 136.249 23.7326C135.664 22.8678 135.668 21.6008 135.759 20.5962L136.573 11.6125L136.578 11.5904C136.685 11.0123 136.324 10.8542 135.798 10.8305L131.908 10.8257C131.622 10.8003 131.336 10.8711 131.095 11.027C130.854 11.183 130.672 11.4149 130.578 11.6861L130.34 14.3073L130.342 14.3014ZM73.2349 16.1955C73.3731 14.6848 73.2349 12.9553 72.1636 11.7824C71.0924 10.6095 69.3795 10.3304 67.8613 10.3277C65.4859 10.3178 63.1915 11.1909 61.4235 12.7773L60.4958 13.606L59.8107 12.5676C59.3523 11.8461 58.7045 11.2644 57.9381 10.8859C57.0429 10.4837 56.0689 10.2876 55.0878 10.3121C54.0482 10.3098 53.0177 10.5057 52.0514 10.8891C51.0754 11.2783 50.1791 11.8434 49.4071 12.5563L48.6973 13.2108L47.9707 12.5751C46.1901 11.0155 44.887 10.6767 42.7111 10.6197C42.6239 10.6067 42.535 10.6117 42.4497 10.6343C42.3645 10.657 42.2848 10.6969 42.2157 10.7516C42.1465 10.8063 42.0892 10.8746 42.0474 10.9523C42.0057 11.0299 41.9802 11.1153 41.9728 11.2032L40.4239 28.8002C40.4214 28.8492 40.4293 28.8981 40.447 28.9439C40.4648 28.9896 40.4921 29.031 40.527 29.0654C40.562 29.0998 40.6039 29.1264 40.6499 29.1435C40.6959 29.1605 40.745 29.1676 40.7939 29.1642L45.8717 29.1707C45.9239 29.1769 45.9767 29.1719 46.0268 29.1561C46.0769 29.1404 46.1231 29.1142 46.1623 29.0793C46.2016 29.0443 46.2329 29.0015 46.2544 28.9536C46.2759 28.9057 46.287 28.8537 46.2869 28.8012L47.1312 19.2017C47.1786 18.1046 47.5816 17.0526 48.2794 16.2046C48.6364 15.8209 49.0715 15.5181 49.5554 15.3167C50.0392 15.1153 50.5607 15.02 51.0845 15.0371C51.5827 14.9971 52.0831 15.0821 52.5402 15.2843C52.9973 15.4865 53.3968 15.7995 53.7025 16.1949C54.2795 17.0624 54.2623 18.3536 54.1741 19.3566L53.3416 28.8109C53.3217 29.0217 53.4352 29.1874 53.7627 29.1804L58.7507 29.1863C58.8599 29.1964 58.9687 29.163 59.0536 29.0935C59.1384 29.0239 59.1925 28.9238 59.204 28.8147L60.0484 19.2179C60.0956 18.1205 60.4986 17.0683 61.1965 16.2202C61.5537 15.8367 61.9888 15.5342 62.4727 15.3329C62.9565 15.1316 63.4779 15.0362 64.0016 15.0532C64.4996 15.0124 64.9998 15.0969 65.4568 15.2988C65.9137 15.5008 66.3129 15.8138 66.618 16.2095C67.2004 17.0785 67.1832 18.3708 67.0907 19.3765L66.6035 24.6592C66.5023 25.8843 66.5416 27.4557 67.5747 28.3162C68.966 29.4686 71.877 29.0803 75.6867 27.2675C75.8518 27.495 76.0362 27.7079 76.2379 27.9037C77.5335 29.1594 79.2495 29.5611 81.0097 29.5633C81.8893 29.5707 82.7646 29.4406 83.604 29.1777C88.5629 27.5821 85.0991 29.2062 91.3551 29.2137C91.4782 29.237 91.6049 29.2327 91.7261 29.2009C91.8473 29.1692 91.9599 29.1109 92.0557 29.0303C92.1516 28.9497 92.2283 28.8488 92.2803 28.7348C92.3324 28.6209 92.3584 28.4968 92.3565 28.3715L93.395 16.9043C93.4939 16.0091 93.4724 15.1048 93.331 14.2154L93.2772 13.9126L93.1965 13.6437C93.0341 13.0076 92.6711 12.4407 92.1613 12.0271C90.5646 10.8176 86.8151 10.6885 84.8506 10.6864C83.8589 10.6864 82.8662 10.7197 81.8745 10.781C80.9124 10.8348 79.9476 10.9311 78.9855 11.0021C78.609 11.0295 78.3401 11.15 78.246 11.5216L77.8271 12.9494C77.8079 13.0241 77.8072 13.1024 77.8251 13.1775C77.843 13.2525 77.879 13.322 77.9298 13.3801C77.9807 13.4381 78.045 13.4828 78.117 13.5104C78.1891 13.5379 78.2668 13.5475 78.3434 13.5383C78.7227 13.5117 79.1025 13.4875 79.4829 13.4657C80.4803 13.4102 81.479 13.384 82.4779 13.3872C83.703 13.3872 85.4895 13.4409 86.578 14.0271C87.0763 14.2964 87.4785 14.7139 87.7291 15.2218C87.9796 15.7298 88.0659 16.3031 87.9762 16.8623L87.8031 18.4219C87.7396 18.9022 87.4148 18.9597 87.0329 18.765C85.9093 17.9921 84.5785 17.5761 83.2146 17.5717C81.1048 17.4814 79.0235 18.0859 77.2904 19.2926C76.3248 19.9902 75.5901 20.9608 75.1806 22.0794C75.0856 22.3433 75.0068 22.6127 74.9445 22.8861C74.8202 23.4195 74.7703 23.9675 74.7961 24.5145V24.5269C74.3627 24.8017 72.3831 25.5218 72.5234 23.9983C72.76 21.3989 72.9972 18.7996 73.2349 16.2003V16.1955ZM83.9659 26.3914C83.049 26.4168 82.1573 26.0896 81.4744 25.4772C81.1347 25.1762 80.8718 24.7985 80.7075 24.3754C80.5432 23.9523 80.4824 23.4961 80.53 23.0448C80.5759 22.5924 80.7164 22.1548 80.9423 21.7602C81.1681 21.3657 81.4744 21.023 81.8411 20.7543C82.5568 20.1824 83.4473 19.8738 84.3634 19.8804C85.2849 19.8636 86.1778 20.2013 86.8576 20.8237C87.1972 21.1229 87.4614 21.4979 87.6288 21.9185C87.7962 22.339 87.862 22.793 87.8208 23.2437C87.774 23.6967 87.6324 24.1348 87.4051 24.5294C87.1778 24.9241 86.87 25.2664 86.5016 25.5342C85.7753 26.0941 84.8824 26.3946 83.9654 26.3876L83.9659 26.3914ZM122.393 16.829L113.503 21.8869L113.353 21.227C112.822 18.8995 113.324 16.8123 115.36 15.3458C117.492 13.8099 120.304 13.1484 122.607 14.7418C123.609 15.4356 123.491 16.3552 122.391 16.829H122.393Z" fill="#0094D9"/>
<path d="M45.9249 3.15036C45.9249 3.17349 45.9287 3.20414 45.9292 3.24125C45.9298 3.27836 45.9292 3.31869 45.9239 3.36118C45.9185 3.40366 45.9142 3.44722 45.9067 3.49025C45.9001 3.53002 45.8899 3.5691 45.876 3.60695C45.8653 3.63775 45.8497 3.66662 45.8297 3.69245C45.8232 3.70209 45.8145 3.71006 45.8043 3.71576C45.7941 3.72145 45.7828 3.7247 45.7711 3.72526C45.7155 3.71821 45.6624 3.69792 45.6162 3.6661C45.5485 3.62666 45.4614 3.58257 45.3549 3.53381C45.2305 3.47883 45.1017 3.43457 44.9698 3.40151C44.7976 3.35949 44.6206 3.33961 44.4433 3.34235C44.2586 3.3397 44.0747 3.36843 43.8996 3.42732C43.7431 3.48136 43.5962 3.56016 43.4646 3.66072C43.3371 3.75878 43.226 3.8764 43.1354 4.00921C43.0438 4.14283 42.9692 4.28736 42.9133 4.43944C42.8568 4.59354 42.8191 4.75388 42.8009 4.917C42.7822 5.07898 42.781 5.24251 42.7972 5.40477C42.811 5.56783 42.8536 5.72714 42.923 5.87534C42.9847 6.00506 43.073 6.12032 43.1822 6.2136C43.2929 6.3062 43.4209 6.37602 43.5587 6.41904C43.7121 6.46707 43.8722 6.49067 44.033 6.48895C44.1472 6.48897 44.2611 6.47726 44.3729 6.454C44.4785 6.43253 44.5808 6.39727 44.6773 6.34913L44.7848 5.30689H43.9211C43.9077 5.30713 43.8943 5.3043 43.8821 5.29861C43.8699 5.29293 43.8592 5.28454 43.8507 5.27409C43.8285 5.24253 43.8161 5.2051 43.8152 5.16653C43.8134 5.13626 43.8134 5.10591 43.8152 5.07564C43.8152 5.03854 43.819 4.99928 43.8227 4.95894C43.8265 4.91861 43.8329 4.8772 43.8405 4.83525C43.8471 4.79702 43.8581 4.75967 43.8733 4.72393C43.8857 4.69469 43.9028 4.66764 43.9238 4.6438C43.9322 4.634 43.9426 4.62613 43.9543 4.62074C43.966 4.61535 43.9787 4.61258 43.9916 4.61261H45.5388C45.5719 4.61016 45.605 4.61584 45.6354 4.62915C45.6658 4.64246 45.6924 4.663 45.713 4.68898C45.754 4.75269 45.7696 4.82946 45.7566 4.90409L45.5716 6.70944C45.5677 6.74804 45.5596 6.7861 45.5474 6.82292C45.5367 6.85408 45.5205 6.88305 45.4995 6.90843C45.4499 6.95248 45.3919 6.98612 45.3291 7.00738C45.2202 7.05206 45.1087 7.08996 44.9951 7.12085C44.8487 7.16111 44.7 7.19253 44.5498 7.21497C44.3811 7.24081 44.2107 7.25358 44.04 7.25315C43.7433 7.25723 43.4475 7.21976 43.1612 7.14183C42.9204 7.07608 42.6952 6.9629 42.4987 6.80894C42.3151 6.66177 42.1653 6.47691 42.0593 6.26685C41.9453 6.03549 41.8755 5.7849 41.8533 5.52792C41.828 5.2821 41.8308 5.03417 41.8619 4.789C41.8914 4.55284 41.9512 4.32147 42.04 4.10064C42.1267 3.88464 42.2431 3.68174 42.3858 3.49777C42.5303 3.31147 42.7039 3.14967 42.8999 3.01861C43.1095 2.87916 43.3393 2.7727 43.5813 2.70292C43.8572 2.62444 44.143 2.58622 44.4299 2.58945C44.5949 2.5888 44.7597 2.60211 44.9225 2.62925C45.0653 2.65288 45.2065 2.68539 45.3452 2.72659C45.4548 2.75879 45.5615 2.80016 45.6641 2.85028C45.7257 2.87891 45.7844 2.9133 45.8394 2.953C45.8669 2.97458 45.8885 3.00268 45.9023 3.03474C45.9156 3.07194 45.9232 3.11091 45.9249 3.15036ZM51.5282 3.65266C51.5434 3.80024 51.5378 3.94924 51.5115 4.09526C51.4851 4.24156 51.4329 4.38197 51.3571 4.50989C51.2756 4.64575 51.1695 4.76521 51.0441 4.86214C50.8951 4.97531 50.7267 5.06041 50.5472 5.11329C50.676 5.1664 50.785 5.25832 50.8591 5.37627C50.9656 5.54308 51.0478 5.72415 51.1033 5.91406L51.384 6.8283C51.3984 6.87956 51.4107 6.92546 51.4211 6.96597C51.4299 6.99974 51.4363 7.03405 51.4405 7.06869C51.442 7.07916 51.4412 7.08983 51.4384 7.10002C51.4355 7.1102 51.4305 7.11968 51.4238 7.12784C51.4019 7.14856 51.3744 7.16256 51.3448 7.16818C51.2918 7.18045 51.2378 7.18801 51.1834 7.19077C51.1142 7.19543 51.0266 7.19776 50.9204 7.19776C50.8211 7.19776 50.7412 7.19489 50.6806 7.18915C50.6321 7.18589 50.5842 7.1765 50.5381 7.16119C50.5096 7.15273 50.4848 7.13492 50.4676 7.11063C50.454 7.08783 50.4437 7.0632 50.437 7.0375L50.1584 6.03721C50.1316 5.93192 50.0956 5.82917 50.0508 5.73013C50.0148 5.64919 49.9659 5.57457 49.9062 5.5091C49.8518 5.45079 49.7848 5.40556 49.7104 5.37681C49.6269 5.34631 49.5385 5.33154 49.4496 5.33325H49.1592L48.9839 7.05417C48.9814 7.07777 48.9712 7.09989 48.9548 7.11709C48.9318 7.13901 48.9034 7.15457 48.8726 7.16226C48.8242 7.17565 48.7747 7.1843 48.7247 7.18808C48.6637 7.19417 48.5884 7.19704 48.4988 7.19668C48.4092 7.19632 48.3351 7.19345 48.2767 7.18808C48.2296 7.18448 48.1831 7.17583 48.1379 7.16226C48.1104 7.15491 48.0856 7.13979 48.0664 7.1187C48.0595 7.10962 48.0547 7.09914 48.0522 7.08799C48.0498 7.07684 48.0499 7.06529 48.0524 7.05417L48.4719 2.95515C48.4721 2.91303 48.4815 2.87147 48.4993 2.83331C48.5171 2.79515 48.543 2.76131 48.5752 2.73412C48.6382 2.68781 48.7148 2.66378 48.793 2.66582H50.0218C50.2195 2.66404 50.4168 2.68388 50.6101 2.72497C50.7734 2.75887 50.9298 2.82014 51.0726 2.90621C51.203 2.98396 51.3127 3.09203 51.3924 3.22123C51.472 3.35043 51.5194 3.49696 51.5303 3.64836L51.5282 3.65266ZM50.5472 3.82367C50.5407 3.76046 50.5224 3.699 50.4934 3.64244C50.4642 3.58545 50.4223 3.53595 50.3708 3.49777C50.31 3.45387 50.2414 3.42193 50.1686 3.40366C50.0744 3.38014 49.9775 3.36911 49.8804 3.37086H49.3528L49.2243 4.64972H49.6669C49.8177 4.65442 49.968 4.62901 50.1089 4.57496C50.2154 4.53294 50.3106 4.46665 50.387 4.38136C50.4527 4.30559 50.4998 4.21555 50.5246 4.11838C50.5496 4.02208 50.5572 3.92265 50.5472 3.82367ZM57.5842 5.51717C57.5613 5.77927 57.4939 6.03554 57.3847 6.27491C57.2879 6.48402 57.1474 6.66996 56.9727 6.82023C56.7941 6.9704 56.5868 7.08257 56.3634 7.14989C56.1066 7.22541 55.8399 7.26168 55.5723 7.25745C55.2968 7.26259 55.0222 7.2243 54.7586 7.14398C54.5462 7.07934 54.3527 6.96377 54.195 6.80732C54.0457 6.65067 53.9395 6.45797 53.8869 6.24802C53.8245 5.99336 53.8097 5.72934 53.8433 5.46931L54.1181 2.79489C54.1207 2.77177 54.1302 2.75 54.1456 2.7325C54.1678 2.71028 54.1957 2.69464 54.2262 2.68733C54.2739 2.6737 54.3227 2.66434 54.372 2.65936C54.4475 2.65172 54.5235 2.64831 54.5995 2.64915C54.6743 2.64836 54.7492 2.65177 54.8237 2.65936C54.8715 2.66387 54.9187 2.67324 54.9646 2.68733C54.9923 2.69447 55.017 2.7103 55.0351 2.7325C55.0472 2.75089 55.0526 2.77297 55.0501 2.79489L54.7764 5.47199C54.7558 5.62629 54.7609 5.78293 54.7914 5.93557C54.8153 6.05367 54.8671 6.16432 54.9426 6.25824C55.0151 6.34408 55.1092 6.40905 55.2152 6.44647C55.34 6.4896 55.4715 6.51035 55.6035 6.50777C55.7441 6.5094 55.8839 6.48628 56.0165 6.43948C56.1369 6.39693 56.2469 6.32929 56.3392 6.24103C56.4326 6.14982 56.5076 6.04157 56.5602 5.92212C56.6201 5.78563 56.6575 5.64034 56.671 5.49189L56.9458 2.79435C56.9483 2.77121 56.9578 2.7494 56.9733 2.73196C56.9943 2.71016 57.0209 2.69453 57.0502 2.68679C57.0972 2.67274 57.1454 2.66337 57.1943 2.65883C57.2691 2.65127 57.3444 2.64786 57.4196 2.64861C57.4932 2.64775 57.5669 2.65116 57.6401 2.65883C57.6868 2.6635 57.7329 2.67287 57.7778 2.68679C57.8055 2.69393 57.8302 2.70977 57.8482 2.73196C57.8605 2.7503 57.8659 2.77242 57.8633 2.79435L57.5842 5.51717ZM63.4197 3.7742C63.4328 3.90981 63.4319 4.04641 63.417 4.18184C63.4016 4.32457 63.3676 4.46467 63.3159 4.59863C63.2627 4.73698 63.1903 4.86715 63.1008 4.9853C63.0024 5.11209 62.8831 5.2212 62.748 5.30797C62.5918 5.40823 62.4209 5.48353 62.2414 5.53115C62.0131 5.58977 61.778 5.61727 61.5423 5.6129H61.0642L60.9169 7.05578C60.9144 7.07938 60.9042 7.10151 60.8878 7.1187C60.8643 7.14085 60.8354 7.15642 60.8039 7.16388C60.755 7.17711 60.7049 7.18576 60.6544 7.18969C60.5938 7.19578 60.5187 7.19865 60.4291 7.19829C60.3394 7.19794 60.2665 7.19507 60.2102 7.18969C60.163 7.18613 60.1163 7.17748 60.0709 7.16388C60.0434 7.15652 60.0186 7.1414 59.9994 7.12031C59.9926 7.11119 59.9878 7.10069 59.9855 7.08954C59.9832 7.07839 59.9833 7.06687 59.9859 7.05578L60.399 2.99548C60.4003 2.94903 60.411 2.90334 60.4304 2.86112C60.4498 2.81889 60.4775 2.78101 60.5119 2.74971C60.584 2.69289 60.6741 2.66387 60.7657 2.66797H61.7676C61.8902 2.66797 62.0005 2.67209 62.0984 2.68034C62.196 2.68868 62.2931 2.70214 62.3893 2.72067C62.5279 2.74597 62.6626 2.78936 62.79 2.84974C62.9056 2.90395 63.0117 2.9766 63.104 3.06486C63.1939 3.15324 63.2668 3.25732 63.3191 3.37193C63.375 3.49943 63.409 3.63542 63.4197 3.7742ZM62.4517 3.87853C62.4428 3.77373 62.4044 3.6736 62.3409 3.58974C62.2726 3.50458 62.1781 3.44443 62.072 3.41872C62.0169 3.40166 61.9601 3.39066 61.9026 3.38591C61.8406 3.37982 61.7718 3.37695 61.6961 3.37731H61.2852L61.1363 4.90732H61.5611C61.6764 4.91013 61.7914 4.89414 61.9015 4.85999C61.9874 4.83215 62.0681 4.79036 62.1403 4.7363C62.206 4.68642 62.2622 4.62501 62.306 4.55507C62.349 4.48655 62.3832 4.41282 62.4076 4.33565C62.4315 4.26034 62.4468 4.18259 62.4533 4.10386C62.4588 4.02897 62.4576 3.95373 62.4495 3.87907L62.4517 3.87853ZM69.5623 4.17861C69.5834 4.3965 69.5869 4.61574 69.5725 4.83418C69.5581 5.06783 69.5206 5.29948 69.4607 5.52577C69.3999 5.75472 69.311 5.97527 69.1961 6.18241C68.9584 6.61786 68.5686 6.95044 68.1012 7.11655C67.816 7.21699 67.5151 7.26544 67.2127 7.2596C66.9546 7.26296 66.6971 7.23131 66.4475 7.16549C66.2359 7.10943 66.038 7.011 65.8656 6.87616C65.7005 6.74354 65.5672 6.57557 65.4757 6.38462C65.3726 6.1645 65.3096 5.92775 65.2896 5.6855C65.2672 5.4578 65.2635 5.22866 65.2783 5.00035C65.293 4.76391 65.3321 4.52962 65.395 4.30123C65.4576 4.07285 65.5489 3.85331 65.6666 3.64782C65.7843 3.44171 65.9355 3.25668 66.114 3.10035C66.3047 2.93535 66.5247 2.80765 66.7626 2.7239C67.0451 2.62729 67.3423 2.5807 67.6408 2.58622C67.8993 2.58263 68.157 2.61485 68.4066 2.68195C68.618 2.73912 68.8154 2.83886 68.9869 2.97504C69.1515 3.10966 69.2842 3.27921 69.3752 3.47142C69.4787 3.69429 69.5421 3.9337 69.5623 4.17861ZM68.5868 4.26574C68.5749 4.13415 68.5458 4.0047 68.5002 3.88068C68.4606 3.77171 68.398 3.6725 68.3168 3.58974C68.2328 3.50741 68.1316 3.44478 68.0205 3.40635C67.8832 3.36075 67.7392 3.3391 67.5946 3.34235C67.4109 3.33738 67.2289 3.37745 67.0643 3.45905C66.9196 3.53435 66.7916 3.63806 66.6879 3.76398C66.5829 3.89312 66.4995 4.03841 66.441 4.19421C66.3803 4.35353 66.3342 4.51806 66.3033 4.68575C66.2729 4.84545 66.2549 5.00727 66.2496 5.16976C66.2449 5.30808 66.2489 5.44656 66.2614 5.58439C66.2734 5.71653 66.3027 5.84653 66.3485 5.97106C66.3883 6.07938 66.4515 6.17761 66.5335 6.25878C66.6184 6.3398 66.7201 6.40113 66.8314 6.4384C66.9703 6.48344 67.1157 6.50471 67.2617 6.50132C67.4439 6.50588 67.6245 6.4664 67.7882 6.38623C67.933 6.31259 68.0612 6.20989 68.1646 6.08454C68.2688 5.95631 68.3516 5.81212 68.4099 5.65753C68.4708 5.49954 68.5171 5.33626 68.5481 5.16976C68.5786 5.01008 68.5966 4.84824 68.6018 4.68575C68.6055 4.54575 68.6005 4.40512 68.5868 4.26574Z" fill="#EC1C24"/>
</g>
<defs>
<clipPath id="clip0_105_106">
<rect width="163.765" height="32" fill="white"/>
</clipPath>
</defs>
</svg>
